<?xml version="1.0" encoding="utf-8"?>
<!-- Generator: Adobe Illustrator 15.0.0, SVG Export Plug-In . SVG Version: 6.00 Build 0)  -->
<!DOCTYPE svg PUBLIC "-//W3C//DTD SVG 1.1//EN" "http://www.w3.org/Graphics/SVG/1.1/DTD/svg11.dtd">
<svg version="1.1" id="Layer_1" xmlns="http://www.w3.org/2000/svg" xmlns:xlink="http://www.w3.org/1999/xlink" x="0px" y="0px"
	 width="900px" height="600px" viewBox="0 0 900 600" enable-background="new 0 0 900 600" xml:space="preserve">
<rect fill="#FFFFFF" width="900" height="600"/>
<path fill="#ED3626" d="M168.212,263.027c-0.362,0.143-1.698,0.534-1.585,0.586c-0.113-0.052-0.19-0.07-0.19-0.162
	c0.141-0.506-2.19,1.663-2.31,0.83c-0.059-0.145,0.12,0.035-0.218-0.063c0.854,0.126-5.232,2.061-5.232,1.948
	c-0.292-0.636-0.229-1.252,0.159-1.824c0.488-1.217-1.034-2.94-0.457-2.43c-0.415-0.422-0.415-0.809-0.024-1.23
	c0.267,0.189,0.024-0.06,0.155-0.594c0.168-0.113-0.313-0.777,0.126-0.542c0.383-0.116,1.009-2.257,0.559-3.791
	c-0.999-2.324-0.573-19.099-0.059-18.47c0.183-1.153-0.897-2.008-0.38-2.869c0.035-0.875-0.812-0.896-0.7-1.505
	c-0.446-1.768-2.942-1.744-2.665-2.12c-1.312,0.306-6.167,8.112-6.22,8.312c0.302-0.292-3.277,5.106-3.21,5.117
	c-0.394-0.1-0.841,0.604-0.914,1.409c-0.039,0.092-2.04,2.567-1.829,2.092c-0.685,1.135-1.491,2.236-2.124,3.407
	c0.492-0.302-0.879,0.95-0.675,0.907c0.028-0.133-1.54,3.791-1.561,3.457c0.141-0.531-1.937,1.934-2.163,1.955
	c-0.439,1.779-7.071-2.588-7.187-4.585c0.011-0.088-0.145-1.864-1.038-2.071c0.397,0.337-4.708-4.307-4.329-3.956
	c-2.661-3.551-4.771-3.446-8.719-6.909c0.031-0.053-0.917-2.243-1.586-3.016c-1.491,0.362-3.513,2.689-3.083,3.255
	c-0.64,0.268-0.76-0.53-1.013-0.805c-0.197,0.869,0.661,5.911,0.661,5.911c-0.094,0.725,0.337,4.469,0.507,3.917l0.281,0.327
	c0,0.031-0.45,0.556,0.109,0.921c0.605,1.062,1.826,1.821,1.4,3.319c-0.535,0.26,0.063,2.222-0.031,1.586
	c-0.605,3.09,6.652,8.906,5.65,13.021c-0.471,0.373,1.378,2.562,1.002,2.468c-0.63,0.738-2.5,1.206-3.808,1.55
	c-0.394,0.229-0.781,0.025-1.196-0.088c-0.4-0.088-3.695-1.438-4.609-0.809c-0.035,0.102-2.732-0.629-2.746-0.502
	c0.481-0.545-3.087,0.749-2.549-0.408c0.232-0.893-3.105,0.957-2.278,0.467c-0.057,0.039-1.456,0.823-1.417,0.587
	c0.109-0.316-1.28-0.031-0.959,0.046c-0.211-0.063-1.628-0.468-1.414-0.331c-0.791-0.513-0.949,0.188-1.881-0.257
	c-0.046,0.106-1.104,0.247-1.294,0.197c-0.074-0.017-2.096,0.06-2.096,0.014c0.166-0.081-1.771,0.559-1.895,0.046
	c0.067-0.077-1.54,1.136-1.983,0.379c0.201-0.607-1.797,0.507-2.117,0.556c-0.239-0.049-1.251-0.493-1.058-0.176
	c-0.166,0.095-1.417,1.627-1.417,1.627c0.236,0.074,6.874,5.049,5.833,4.269c0,0,0.714,0.598,2.455,1.639
	c-0.274,0.739,2.563,0.028,2.102,1.635c2.641-1.551,8.056,5.727,9.944,4.578c0.25,0,1.055,1.259,1.322,1.168
	c-0.432-0.373,1.372,0.59,0.81,0.548c0.25,0.302,0.158,0.189,1.019,1.083c2.163-0.098,3.084,1.691,3.798,2.293
	c2.377,4.571-7.482,8.987-8.333,11.293c-0.031,0.12-0.031,0.216-0.165,0.177c0.116,0.108-1.378,0.646-1.554,1.367l-1.473,1.92
	c-1.315-0.38-4.656,4.938-5.999,5.622l-3.221,1.484c0,0-0.461,0.438-0.76,0.879c-0.292,0.467-0.742,1.001-1.055,1.114
	c-0.285,0.109-2.278,2.078-2.278,2.078l-0.5,0.937l0.798,0.353c0,0-0.51,0.604-0.59,0.871c-0.117,0.231-0.401,0.885,0.229,1.026
	c0.65,0.151,1.012,0.151,1.156,0.45c0.145,0.312,2.732,0.506,2.943,0.471c0.189-0.062,1.473-0.636,1.473-0.636
	c1.242-0.397,5.316-0.324,5.784,0.077c-0.081-0.024,5.908-1.48,6.069-1.971c0.2,0.039,3.685-1.22,3.685-1.22
	c0.963-0.446,3.144-0.802,3.847-1.61c-0.665,0.142,2.819-1.051,3.804-0.572c0.299,0.166,8.703-1.586,8.984-2.658
	c0.679,0.066,0.752,0.689,0.802,0.73c-0.205,1.111-0.021,4.209-0.437,4.729c0.004-0.437-1.181,0.806-0.777,1.459
	c0.841,0.269,0.809-0.024,1.318,1.199c-0.232-0.556,0.067,2.491-0.003,3.604c0.031,0.579,0.967,2.527-0.591,3.295
	c0,0-0.875,1.834-0.917,1.795c0.113-0.893,0.113,0.461-0.049,0.205c0.788-0.369,0.548,2.031,0.373,2.328
	c0.147-0.373-0.405,0.459-0.468,0.172c-1.266,2.488,1.403,2.764-0.137,3.055c0.658,0.193,1.006,3.502,0.963,3.021
	c0.147,1.104,0.057,2.184-0.285,3.235c-0.229-0.687-0.601,1.258-0.479,1.804c0.25,1.237-0.373,3.578,0.82,4.124
	c-0.184-0.491,0.896,1.142,0.896,1.142c2.771,1.168,3.442-2.453,4.672-3.025c0.418-0.092,0.9-1.766,1.301-1.631
	c0.039-0.135,1.705-8.098,2.985-7.68c-0.063,0,2.146-3.273,2.592-4.678c-0.015,0.104-1.055-1.136,1.153-2.095
	c1.079,0.362,1.571-2.504,1.846-4.146c0.077-0.922,0.728-0.481,0.837-1.467c-0.028,0.276,1.895-2.943,2.205-4.259
	c0.323,0.024,0.373-1.459,0.584-1.252c-0.598-0.522,0.52-1.136,0.375-1.579c0.205-0.794,0.145-1.501,0.482-1.432
	c0.327-1.551,1.294-0.871,1.512-0.727c0.454,0.25,1.087-0.146,1.168,0.997c-0.443,0.57,1.424,1.111,1.269,1.468
	c-0.053-0.281,8.959,10.357,11.448,12.395c0.116,0.111,7.092,7.042,6.79,6.965c0.773,0.396,1.42,1.801,1.477,1.702
	c-0.288,0.453,1.333,1.185,1.621,1.185c1.051,1.856,1.111,1.467,1.677,1.153c0.176,0.83,1.583,0.427,2.096,0.703
	c-0.158-0.404,1.101-0.749,0.827-1.198c0.386,0.133-0.25-1.49,0.095-1.302c-0.446-0.772-3.087-4.293-2.904-4.937
	c0.052-0.219,0.373-0.145,0.566-0.093c-0.035-0.214-0.334-0.421-0.514-0.569c0.479-0.01,0.591-0.271,0.32-0.779
	c-0.478,0.26-1.125-2.762-0.714-3.176c0.169-0.771-2.151-10.178-3.256-11.094c0.074-0.326-0.383-2.412-0.471-2.58
	c-1.818-1.144-0.302-3.418-1.568-3.809c-0.288,0.557-1.603-1.589-1.786-3.375c-0.612-1.115,0-3.777-0.415-3.365
	c-0.362-0.412,1.884-1.361,2.45-0.141c4.74,1.801,13.805-1.188,17.082,1.352c0.777-1.461,2.514-0.318,1.583-0.592
	c-0.144,0.18,0.168,0.273,0.379,0.319c-0.429-0.091,3.196-0.319,3.742-0.027c-1.4-0.342,2.05-0.116,1.912-0.173
	c-1.223-0.264,2.454,0.441,6.368-1.979c1.407-0.443,1.139-1.172,1.737-2.519c-0.243,1.153,0.365-1.149-0.827-1.863
	c-6.93-1.737-12.447-6.867-19.352-8.667c-2.676-0.566-7.004-7.121-9.297-6.702c4.181-4.778,8.242-9.521,12.545-13.579
	c0.844-0.823,9.491-10.133,9.491-10.024c0.316-0.475,0.801-2.025,0.767-1.361c0.017-0.214-0.088-0.517-0.324-0.844
	c-0.021,0.113-3.246-2.416-4.093-0.848c1.147,0.714-2.302,0.96-3.15,1.146c-0.25,0.166-0.471,0.102-0.665,0.039
	c-0.869-0.204-2.001,0.781-2.577,0.911c-1.256-1.122-4.424,0.959-5.865,1.449c0.119-0.056-0.616,0.095-1.737-0.144
	c-0.485,0.781-0.464,0.566-0.348,0.489c-0.418,0.229-0.77,0.583-2.458,1.164c0.19,0.071-1.068,0.594-1.547,0.468
	c0.039,0.221-0.193,0.815-0.938,0.681C168.347,263.027,168.419,262.806,168.212,263.027"/>
<path fill="#ED3626" d="M228.153,265.725h20.059v61.256h-20.059V265.725z M231.108,259.103h-15.105l13.21-17.563h17.929
	l13.224,17.563h-15.095l-7.084-9.452L231.108,259.103"/>
<rect x="257.982" y="242.704" fill="#ED3626" width="20.069" height="84.281"/>
<path fill="#ED3626" d="M328.333,290.056c-0.358-6.877-5.204-12.528-11.927-12.528c-7.074,0-11.8,5.063-12.989,12.528
	 M303.417,301.25c0.366,8.371,5.197,13.92,13.713,13.92c4.807,0,9.542-2.246,11.435-6.746h18.776
	c-3.653,14.176-16.783,20.314-30.464,20.314c-19.947,0-33.519-12.035-33.519-32.566c0-18.762,14.996-32.225,33.047-32.225
	c21.955,0,32.932,16.529,32.003,37.302H303.417"/>
<path fill="#ED3626" d="M374.759,321.109c10.612,0,14.708-9.117,14.708-18.14c0-9.504-4.293-18.224-15.162-18.224
	c-10.791,0-14.426,9.198-14.426,18.604C359.878,312.361,364.541,321.109,374.759,321.109 M397.107,326.98h-7.915v-6.501h-0.189
	c-2.592,5.288-8.748,7.616-15.34,7.616c-14.81,0-22.155-11.74-22.155-25.319c0-13.579,7.257-25.024,21.979-25.024
	c4.912,0,11.986,1.853,15.516,7.528h0.189v-24.747h7.915V326.98"/>
<path fill="#ED3626" d="M438.027,298.318c-0.369-7.542-6.025-13.573-13.859-13.573c-8.273,0-13.203,6.213-13.755,13.573
	 M445.672,311.713c-2.139,10.605-9.769,16.383-20.557,16.383c-15.364,0-22.629-10.607-23.094-25.319
	c0-14.427,9.504-25.024,22.623-25.024c17.021,0,22.24,15.903,21.772,27.552h-36.006c-0.277,8.391,4.47,15.806,14.966,15.806
	c6.521,0,11.068-3.183,12.475-9.396h7.82"/>
<polyline fill="#ED3626" points="451.548,242.704 513.631,242.704 513.631,260.291 473.495,260.291 473.495,277.527 
	508.194,277.527 508.194,294.514 473.495,294.514 473.495,326.98 451.548,326.98 "/>
<path fill="#ED3626" d="M517.632,265.725h19.482v10.734h0.229c2.953-7.788,9.792-11.927,18.431-11.927
	c1.517,0,3.161,0.145,4.712,0.496v18.28c-2.599-0.721-4.95-1.188-7.683-1.188c-9.901,0-15.119,6.849-15.119,14.528v30.333h-20.053"
	/>
<path fill="#ED3626" d="M586.446,316.348c9.538,0,12.735-5.426,12.268-18.058c-2.83,1.758-8.023,2.134-12.395,3.298
	c-4.473,1.055-8.263,2.957-8.263,7.795C578.057,314.332,581.935,316.348,586.446,316.348 M560.482,284.598
	c0.355-8.006,4.132-13.213,9.543-16.413c5.43-3.045,12.503-4.237,19.477-4.237c14.515,0,28.579,3.193,28.579,20.548v26.782
	c0,5.189,0,10.852,2.362,15.702h-20.204c-0.695-1.907-0.945-3.778-1.175-5.782c-5.187,5.418-12.86,7.537-20.186,7.537
	c-11.685,0-20.886-5.882-20.886-18.533c0-19.933,21.719-18.399,35.64-21.232c3.438-0.707,5.306-1.885,5.306-5.661
	c0-4.599-5.521-6.364-9.663-6.364c-5.559,0-9.085,2.486-10.029,7.654H560.482"/>
<path fill="#ED3626" d="M625.387,265.725h19.476v8.382h0.253c3.65-6.263,11.902-10.159,19.221-10.159
	c20.424,0,22.08,14.876,22.08,23.73v39.303h-20.06v-29.623c0-8.389,0.945-16.881-10.046-16.881c-7.545,0-10.854,6.364-10.854,13.087
	v33.417h-20.069"/>
<path fill="#ED3626" d="M733.752,288.152c-0.126-5.183-4.739-8.854-9.792-8.854c-11.22,0-12.985,9.557-12.985,18.059
	c0,7.908,3.423,16.041,11.924,16.041c6.938,0,10.514-4.012,11.435-10.48h19.482c-1.769,16.385-14.518,25.822-30.818,25.822
	c-18.39,0-32.111-12.627-32.111-31.382c0-19.465,12.407-33.41,32.111-33.41c15.238,0,28.821,8.027,30.235,24.205"/>
<g>
	<g>
		<defs>
			<rect id="SVGID_1_" x="79.474" y="227.082" width="741.053" height="145.836"/>
		</defs>
		<clipPath id="SVGID_2_">
			<use xlink:href="#SVGID_1_"  overflow="visible"/>
		</clipPath>
		<path clip-path="url(#SVGID_2_)" fill="#ED3626" d="M799.964,290.056c-0.353-6.877-5.189-12.528-11.922-12.528
			c-7.09,0-11.79,5.063-12.979,12.528 M775.063,301.25c0.354,8.371,5.193,13.92,13.695,13.92c4.827,0,9.552-2.246,11.434-6.746
			h18.787c-3.682,14.176-16.779,20.314-30.475,20.314c-19.937,0-33.517-12.035-33.517-32.566c0-18.762,15.012-32.225,33.054-32.225
			c21.967,0,32.931,16.529,31.984,37.302H775.063"/>
	</g>
</g>
</svg>
